<?xml version="1.0" standalone="no"?>
<!DOCTYPE svg PUBLIC "-//W3C//DTD SVG 20010904//EN"
 "http://www.w3.org/TR/2001/REC-SVG-20010904/DTD/svg10.dtd">
<svg version="1.0" xmlns="http://www.w3.org/2000/svg"
 width="512.000000pt" height="512.000000pt" viewBox="0 0 512.000000 512.000000"
 preserveAspectRatio="xMidYMid meet">
<metadata>
Created by potrace 1.14, written by Peter Selinger 2001-2017
</metadata>
<g transform="translate(0.000000,512.000000) scale(0.100000,-0.100000)"
fill="#000000" stroke="none">
<path d="M0 2560 l0 -2560 2560 0 2560 0 0 2560 0 2560 -2560 0 -2560 0 0
-2560z m2850 1502 c517 -112 919 -454 1110 -948 109 -283 127 -612 49 -904
-117 -436 -400 -785 -794 -975 -242 -117 -388 -150 -665 -150 -218 0 -280 8
-448 61 -223 70 -416 184 -585 344 -717 680 -606 1832 228 2368 144 93 344
173 515 205 132 25 134 25 320 22 129 -2 200 -8 270 -23z"/>
</g>
</svg>
